<?xml version="1.0" encoding="utf-8"?>
<!-- Generator: Adobe Illustrator 26.3.1, SVG Export Plug-In . SVG Version: 6.00 Build 0)  -->
<svg version="1.1" id="レイヤー_1" xmlns="http://www.w3.org/2000/svg" xmlns:xlink="http://www.w3.org/1999/xlink" x="0px"
	 y="0px" viewBox="0 0 32 32" style="enable-background:new 0 0 32 32;" xml:space="preserve">
<style type="text/css">
	.st0{fill:none;}
	.st1{fill:#FFFFFF;}
</style>
<path class="st0" d="M0,0h32v32H0V0z"/>
<path class="st1" d="M1.6,1.6h28.8c0.9,0,1.6,0.7,1.6,1.6v25.6c0,0.9-0.7,1.6-1.6,1.6H1.6c-0.9,0-1.6-0.7-1.6-1.6V3.2
	C0,2.3,0.7,1.6,1.6,1.6z M17.6,17.6V16h4.8v-3.2h-4.1l3.4-3.4l-2.3-2.3L16,10.5l-3.4-3.4l-2.3,2.3l3.4,3.4H9.6V16h4.8v1.6H9.6v3.2
	h4.8V24h3.2v-3.2h4.8v-3.2H17.6z"/>
</svg>
