<?xml version="1.0" encoding="utf-8"?>
<!-- Generator: Adobe Illustrator 25.3.1, SVG Export Plug-In . SVG Version: 6.00 Build 0)  -->
<svg version="1.1" id="レイヤー_1" xmlns="http://www.w3.org/2000/svg" xmlns:xlink="http://www.w3.org/1999/xlink" x="0px"
	 y="0px" viewBox="0 0 24 24" style="enable-background:new 0 0 24 24;" xml:space="preserve">
<style type="text/css">
	.st0{fill:none;}
</style>
<path class="st0" d="M0,0h24v24H0V0z"/>
<path d="M6,18h12v6H6V18z M20.4,21.6v-6H3.6v6H1.2c-0.7,0-1.2-0.5-1.2-1.2v-12c0-0.7,0.5-1.2,1.2-1.2h21.6c0.7,0,1.2,0.5,1.2,1.2v12
	c0,0.7-0.5,1.2-1.2,1.2H20.4z M3.6,9.6V12h3.6V9.6H3.6z M6,0h12c0.7,0,1.2,0.5,1.2,1.2v3.6H4.8V1.2C4.8,0.5,5.3,0,6,0z"/>
</svg>
