<?xml version="1.0" encoding="utf-8"?>
<!-- Generator: Adobe Illustrator 26.3.1, SVG Export Plug-In . SVG Version: 6.00 Build 0)  -->
<svg version="1.1" id="レイヤー_1" xmlns="http://www.w3.org/2000/svg" xmlns:xlink="http://www.w3.org/1999/xlink" x="0px"
	 y="0px" viewBox="0 0 24 24" style="enable-background:new 0 0 24 24;" xml:space="preserve">
<style type="text/css">
	.st0{fill:none;}
	.st1{fill:#fff;}
</style>
<path class="st0" d="M0,0h24v24H0V0z"/>
<path class="st1" d="M12,24C5.4,24,0,18.6,0,12S5.4,0,12,0s12,5.4,12,12S18.6,24,12,24z M17.8,18.1c3.4-3.2,3.5-8.5,0.3-11.9
	c-2.5-2.6-6.4-3.4-9.7-1.8l1.2,2.1c3-1.3,6.6,0.1,7.9,3.1c0.3,0.8,0.5,1.6,0.5,2.4h-3.6L17.8,18.1z M15.6,19.6l-1.2-2.1
	c-3,1.3-6.6-0.1-7.9-3.1C6.2,13.6,6,12.8,6,12h3.6L6.2,5.9c-3.4,3.2-3.5,8.5-0.3,11.9C8.4,20.4,12.3,21.1,15.6,19.6z"/>
</svg>
