<?xml version="1.0" encoding="utf-8"?>
<!-- Generator: Adobe Illustrator 26.3.1, SVG Export Plug-In . SVG Version: 6.00 Build 0)  -->
<svg version="1.1" id="レイヤー_1" xmlns="http://www.w3.org/2000/svg" xmlns:xlink="http://www.w3.org/1999/xlink" x="0px"
	 y="0px" viewBox="0 0 32 32" style="enable-background:new 0 0 32 32;" xml:space="preserve">
<style type="text/css">
	.st0{fill:none;}
	.st1{fill:#FFFFFF;}
</style>
<path class="st0" d="M0,0h32v32H0V0z"/>
<path class="st1" d="M3.2,0h25.6c0.9,0,1.6,0.7,1.6,1.6v28.8c0,0.9-0.7,1.6-1.6,1.6H3.2c-0.9,0-1.6-0.7-1.6-1.6V1.6
	C1.6,0.7,2.3,0,3.2,0z M8,16v3.2h3.2V16H8z M8,22.4v3.2h3.2v-3.2H8z M14.4,16v3.2h3.2V16H14.4z M14.4,22.4v3.2h3.2v-3.2H14.4z
	 M20.8,16v9.6H24V16H20.8z M8,6.4v6.4h16V6.4H8z"/>
</svg>
