<?xml version="1.0" encoding="utf-8"?>
<!-- Generator: Adobe Illustrator 26.3.1, SVG Export Plug-In . SVG Version: 6.00 Build 0)  -->
<svg version="1.1" xmlns="http://www.w3.org/2000/svg" xmlns:xlink="http://www.w3.org/1999/xlink" x="0px"
	 y="0px" viewBox="0 0 24 24" style="enable-background:new 0 0 24 24;" xml:space="preserve">
<style type="text/css">
	.st0{fill:none;}
	.st1{fill:#062037;}
</style>
<path class="st0" d="M0,0h24v24H0V0z"/>
<path class="st1" d="M1.2,12C2.1,6.9,6.6,3,12,3s9.9,3.9,10.8,9c-0.9,5.1-5.4,9-10.8,9S2.1,17.1,1.2,12z M12,17c2.8,0,5-2.2,5-5
	s-2.2-5-5-5s-5,2.2-5,5S9.2,17,12,17z M12,15c-1.7,0-3-1.3-3-3s1.3-3,3-3s3,1.3,3,3S13.7,15,12,15z"/>
</svg>
