<?xml version="1.0" encoding="utf-8"?>
<!-- Generator: Adobe Illustrator 26.3.1, SVG Export Plug-In . SVG Version: 6.00 Build 0)  -->
<svg version="1.1" id="レイヤー_1" xmlns="http://www.w3.org/2000/svg" xmlns:xlink="http://www.w3.org/1999/xlink" x="0px"
	 y="0px" viewBox="0 0 32 32" style="enable-background:new 0 0 32 32;" xml:space="preserve">
<style type="text/css">
	.st0{fill:none;}
	.st1{fill:#FFFFFF;}
</style>
<path class="st0" d="M0,0h32v32H0V0z"/>
<path class="st1" d="M0.2,18.6c-0.3-1.7-0.3-3.5,0-5.2c1.8,0,3.3-0.8,4-2.3C4.8,9.6,4.3,7.9,3,6.7C4,5.3,5.3,4,6.7,3
	c1.2,1.3,2.9,1.8,4.4,1.2s2.3-2.2,2.3-4c1.7-0.3,3.5-0.3,5.2,0c0,1.8,0.8,3.3,2.3,4c1.5,0.6,3.2,0.1,4.4-1.2C26.7,4,28,5.3,29,6.7
	c-1.3,1.2-1.8,2.9-1.2,4.4c0.6,1.5,2.2,2.3,4,2.3c0.3,1.7,0.3,3.5,0,5.2c-1.8,0-3.3,0.8-4,2.3c-0.6,1.5-0.1,3.2,1.2,4.4
	c-1,1.4-2.3,2.7-3.7,3.7c-1.2-1.3-2.9-1.8-4.4-1.2c-1.5,0.6-2.3,2.2-2.3,4c-1.7,0.3-3.5,0.3-5.2,0c0-1.8-0.8-3.3-2.3-4
	c-1.5-0.6-3.2-0.1-4.4,1.2C5.3,28,4,26.7,3,25.3c1.3-1.2,1.8-2.9,1.2-4.4C3.6,19.4,2,18.6,0.2,18.6L0.2,18.6z M16,20.8
	c2.7,0,4.8-2.1,4.8-4.8s-2.1-4.8-4.8-4.8s-4.8,2.1-4.8,4.8S13.3,20.8,16,20.8z"/>
</svg>
