<?xml version="1.0" encoding="utf-8"?>
<!-- Generator: Adobe Illustrator 25.3.1, SVG Export Plug-In . SVG Version: 6.00 Build 0)  -->
<svg version="1.1" id="レイヤー_1" xmlns="http://www.w3.org/2000/svg" xmlns:xlink="http://www.w3.org/1999/xlink" x="0px"
	 y="0px" viewBox="0 0 24 24" style="enable-background:new 0 0 24 24;" xml:space="preserve">
<style type="text/css">
	.st0{fill:#FFFFFF;}
</style>
<path class="st0" d="M3.2,0.3c2.5-0.9,5.2,0.4,6.1,2.9c0.4,1,0.4,2.2,0,3.2L24,21.1L21.1,24L6.4,9.2c-2.5,0.9-5.2-0.4-6.1-2.9
	c-0.4-1-0.4-2.2,0-3.2l3,3C4.1,7,5.4,7,6.2,6.3S7,4.2,6.3,3.4c0,0,0,0-0.1-0.1L3.2,0.3L3.2,0.3z M17.3,2.8l4.3-2.4l1.9,1.9l-2.4,4.3
	l-2.4,0.5l-2.9,2.9l-1.9-1.9l2.9-2.9L17.3,2.8z M7.6,13.4l2.9,2.9L3.8,23c-0.8,0.8-2.1,0.8-2.9,0c-0.7-0.7-0.8-1.9-0.1-2.7l0.1-0.1
	L7.6,13.4L7.6,13.4z"/>
</svg>
