<?xml version="1.0" encoding="utf-8"?>
<!-- Generator: Adobe Illustrator 25.3.1, SVG Export Plug-In . SVG Version: 6.00 Build 0)  -->
<svg version="1.1" id="レイヤー_1" xmlns="http://www.w3.org/2000/svg" xmlns:xlink="http://www.w3.org/1999/xlink" x="0px"
	 y="0px" viewBox="0 0 24 24" style="enable-background:new 0 0 24 24;" xml:space="preserve">
<style type="text/css">
	.st0{fill:#FFFFFF;}
</style>
<path class="st0" d="M12,24C5.4,24,0,18.6,0,12S5.4,0,12,0s12,5.4,12,12S18.6,24,12,24z M10.3,17.5v3.4h3.4v-3.4H10.3z M13.7,14.7
	c3.1-0.9,4.9-4.3,4-7.4c-0.8-2.5-3.1-4.2-5.7-4.2c-2.8,0-5.3,2-5.8,4.8l3.3,0.7c0.3-1.4,1.6-2.3,3-2s2.3,1.6,2,3
	c-0.2,1.2-1.3,2.1-2.5,2.1c-0.9,0-1.7,0.8-1.7,1.7V16h3.4C13.7,16,13.7,14.7,13.7,14.7z"/>
</svg>
