<?xml version="1.0" encoding="utf-8"?>
<!-- Generator: Adobe Illustrator 26.3.1, SVG Export Plug-In . SVG Version: 6.00 Build 0)  -->
<svg version="1.1" id="レイヤー_1" xmlns="http://www.w3.org/2000/svg" xmlns:xlink="http://www.w3.org/1999/xlink" x="0px"
	 y="0px" viewBox="0 0 32 32" style="enable-background:new 0 0 32 32;" xml:space="preserve">
<style type="text/css">
	.st0{fill:none;}
	.st1{fill:#FFFFFF;}
</style>
<path class="st0" d="M0,0h32v32H0V0z"/>
<path class="st1" d="M6.1,0.8v30.5H0V0.8H6.1z M9.1,0.8h15.2c1.7,0,3,1.4,3,3v24.4c0,1.7-1.4,3-3,3H9.1V0.8z M29,6.9h3V13h-3V6.9z
	 M29,16h3v6.1h-3V16z M18.3,16c1.7,0,3-1.4,3-3s-1.4-3-3-3s-3,1.4-3,3S16.6,16,18.3,16z M13.7,22.1h9.1c0-2.5-2-4.6-4.6-4.6
	S13.7,19.6,13.7,22.1z"/>
</svg>
