<?xml version="1.0" encoding="utf-8"?>
<!-- Generator: Adobe Illustrator 26.3.1, SVG Export Plug-In . SVG Version: 6.00 Build 0)  -->
<svg version="1.1" id="レイヤー_1" xmlns="http://www.w3.org/2000/svg" xmlns:xlink="http://www.w3.org/1999/xlink" x="0px"
	 y="0px" viewBox="0 0 32 32" style="enable-background:new 0 0 32 32;" xml:space="preserve">
<style type="text/css">
	.st0{fill:none;}
	.st1{fill:#FFFFFF;}
</style>
<path class="st0" d="M0,0h32v32H0V0z"/>
<path class="st1" d="M16,14.4c4.4,0,8,3.6,8,8V32H8v-9.6C8,18,11.6,14.4,16,14.4z M5.3,19.2C5,20.1,4.9,21,4.8,21.8l0,0.6V32H0v-7.2
	c0-2.9,2.2-5.3,5-5.6L5.3,19.2L5.3,19.2z M26.7,19.2c3,0.2,5.3,2.6,5.3,5.6V32h-4.8v-9.6C27.2,21.3,27,20.2,26.7,19.2z M5.6,9.6
	c2.2,0,4,1.8,4,4s-1.8,4-4,4s-4-1.8-4-4S3.4,9.6,5.6,9.6z M26.4,9.6c2.2,0,4,1.8,4,4s-1.8,4-4,4s-4-1.8-4-4S24.2,9.6,26.4,9.6z
	 M16,0c3.5,0,6.4,2.9,6.4,6.4s-2.9,6.4-6.4,6.4S9.6,9.9,9.6,6.4S12.5,0,16,0z"/>
</svg>
