<?xml version="1.0" encoding="utf-8"?>
<!-- Generator: Adobe Illustrator 25.3.1, SVG Export Plug-In . SVG Version: 6.00 Build 0)  -->
<svg version="1.1" id="レイヤー_1" xmlns="http://www.w3.org/2000/svg" xmlns:xlink="http://www.w3.org/1999/xlink" x="0px"
	 y="0px" viewBox="0 0 24 24" style="enable-background:new 0 0 24 24;" xml:space="preserve">
<style type="text/css">
	.st0{fill:#FFFFFF;}
</style>
<path class="st0" d="M22.8,2.4H6c-1.3,0-2.4,1.1-2.4,2.4S4.7,7.2,6,7.2h16.8v15.6c0,0.7-0.5,1.2-1.2,1.2H6c-2.7,0-4.8-2.1-4.8-4.8
	V4.8C1.2,2.1,3.3,0,6,0h15.6c0.7,0,1.2,0.5,1.2,1.2V2.4z M21.6,6H6C5.3,6,4.8,5.5,4.8,4.8S5.3,3.6,6,3.6h15.6V6z"/>
</svg>
