<?xml version="1.0" encoding="utf-8"?>
<!-- Generator: Adobe Illustrator 26.3.1, SVG Export Plug-In . SVG Version: 6.00 Build 0)  -->
<svg version="1.1" id="レイヤー_1" xmlns="http://www.w3.org/2000/svg" xmlns:xlink="http://www.w3.org/1999/xlink" x="0px"
	 y="0px" viewBox="0 0 32 32" style="enable-background:new 0 0 32 32;" xml:space="preserve">
<style type="text/css">
	.st0{fill:none;}
	.st1{fill:#FFFFFF;}
</style>
<path class="st0" d="M0,0h32v32H0V0z"/>
<path class="st1" d="M27.2,32H4.8C2.1,32,0,29.9,0,27.2V1.6C0,0.7,0.7,0,1.6,0H24c0.9,0,1.6,0.7,1.6,1.6v19.2H32v6.4
	C32,29.9,29.9,32,27.2,32z M25.6,24v3.2c0,0.9,0.7,1.6,1.6,1.6c0.9,0,1.6-0.7,1.6-1.6V24H25.6z M6.4,8v3.2h12.8V8H6.4z M6.4,14.4
	v3.2h12.8v-3.2H6.4z M6.4,20.8V24h8v-3.2H6.4z"/>
</svg>
