<?xml version="1.0" encoding="utf-8"?>
<!-- Generator: Adobe Illustrator 26.3.1, SVG Export Plug-In . SVG Version: 6.00 Build 0)  -->
<svg version="1.1" xmlns="http://www.w3.org/2000/svg" xmlns:xlink="http://www.w3.org/1999/xlink" x="0px"
	 y="0px" viewBox="0 0 24 24" style="enable-background:new 0 0 24 24;" xml:space="preserve">
<style type="text/css">
	.st0{fill:none;}
	.st1{fill:#FFFFFF;}
</style>
<path class="st0" d="M0,0h24v24H0V0z"/>
<path class="st1" d="M12,0l9,2c0.5,0.1,0.9,0.6,0.9,1.1V14c0,2.2-1.1,4.2-2.9,5.4L12,24l-6.9-4.6c-1.8-1.2-2.9-3.3-2.9-5.4V3.1
	c0-0.5,0.4-1,0.9-1.1L12,0z M12,6.5c-1.2,0-2.2,1-2.2,2.2c0,0.8,0.4,1.5,1.1,1.9v4.7h2.2l0-4.7c1-0.6,1.4-1.9,0.8-3
	C13.5,7,12.8,6.5,12,6.5z"/>
</svg>
