<?xml version="1.0" encoding="utf-8"?>
<!-- Generator: Adobe Illustrator 26.3.1, SVG Export Plug-In . SVG Version: 6.00 Build 0)  -->
<svg version="1.1" id="レイヤー_1" xmlns="http://www.w3.org/2000/svg" xmlns:xlink="http://www.w3.org/1999/xlink" x="0px"
	 y="0px" viewBox="0 0 32 32" style="enable-background:new 0 0 32 32;" xml:space="preserve">
<style type="text/css">
	.st0{fill:none;}
	.st1{fill:#FFFFFF;}
</style>
<path class="st0" d="M0,0h32v32H0V0z"/>
<path class="st1" d="M24,3.2h6.4c0.9,0,1.6,0.7,1.6,1.6v25.6c0,0.9-0.7,1.6-1.6,1.6H1.6C0.7,32,0,31.3,0,30.4V4.8
	c0-0.9,0.7-1.6,1.6-1.6H8V0h3.2v3.2h9.6V0H24V3.2z M3.2,12.8v16h25.6v-16H3.2z M6.4,16h3.2v3.2H6.4V16z M6.4,22.4h3.2v3.2H6.4V22.4z
	 M12.8,16h12.8v3.2H12.8V16z M12.8,22.4h8v3.2h-8V22.4z"/>
</svg>
