<?xml version="1.0" encoding="utf-8"?>
<!-- Generator: Adobe Illustrator 26.3.1, SVG Export Plug-In . SVG Version: 6.00 Build 0)  -->
<svg version="1.1" id="レイヤー_1" xmlns="http://www.w3.org/2000/svg" xmlns:xlink="http://www.w3.org/1999/xlink" x="0px"
	 y="0px" viewBox="0 0 32 32" style="enable-background:new 0 0 32 32;" xml:space="preserve">
<style type="text/css">
	.st0{fill:none;}
	.st1{fill:#FFFFFF;}
</style>
<path class="st0" d="M0,0h32v32H0V0z"/>
<path class="st1" d="M29.1,27.6H32v2.9H0v-2.9h2.9V2.9c0-0.8,0.7-1.5,1.5-1.5h23.3c0.8,0,1.5,0.7,1.5,1.5V27.6z M10.2,14.5v2.9h4.4
	v-2.9H10.2z M10.2,8.7v2.9h4.4V8.7H10.2z M10.2,20.4v2.9h4.4v-2.9H10.2z M17.5,20.4v2.9h4.4v-2.9H17.5z M17.5,14.5v2.9h4.4v-2.9
	H17.5z M17.5,8.7v2.9h4.4V8.7H17.5z"/>
</svg>
