<?xml version="1.0" encoding="utf-8"?>
<!-- Generator: Adobe Illustrator 25.3.1, SVG Export Plug-In . SVG Version: 6.00 Build 0)  -->
<svg version="1.1" id="レイヤー_1" xmlns="http://www.w3.org/2000/svg" xmlns:xlink="http://www.w3.org/1999/xlink" x="0px"
	 y="0px" viewBox="0 0 24 24" style="enable-background:new 0 0 24 24;" xml:space="preserve">
<style type="text/css">
	.st0{fill:none;}
	.st1{fill:#005BAC;}
</style>
<path class="st0" d="M0,0h24v24H0V0z"/>
<path class="st1" d="M14.5,21.5L12,24l-2.5-2.5C4.7,20.4,1.1,16,1.1,10.9C1.1,4.9,6,0,12,0s10.9,4.9,10.9,10.9
	C22.9,16,19.3,20.4,14.5,21.5z M5.5,14.6c1.6,2.4,4,3.9,6.7,3.9c2.7,0,5.1-1.5,6.7-3.9c-1.9-1.7-4.3-2.6-6.7-2.6S7.3,13,5.5,14.6z
	 M12,9.8c1.9,0,3.3-1.4,3.3-3.3S13.9,3.3,12,3.3S8.7,4.7,8.7,6.5S10.1,9.8,12,9.8z"/>
</svg>
