<?xml version="1.0" encoding="utf-8"?>
<!-- Generator: Adobe Illustrator 25.3.1, SVG Export Plug-In . SVG Version: 6.00 Build 0)  -->
<svg version="1.1" id="レイヤー_1" xmlns="http://www.w3.org/2000/svg" xmlns:xlink="http://www.w3.org/1999/xlink" x="0px"
	 y="0px" viewBox="0 0 24 24" style="enable-background:new 0 0 24 24;" xml:space="preserve">
<style type="text/css">
	.st0{fill:none;}
	.st1{fill:#1F94CC;}
</style>
<path class="st0" d="M0,0h24v24H0V0z"/>
<path class="st1" d="M10.6,0c5.9,0,10.6,4.8,10.6,10.6s-4.8,10.6-10.6,10.6S0,16.5,0,10.6S4.8,0,10.6,0z M10.6,18.9
	c4.6,0,8.3-3.7,8.3-8.3c0-4.6-3.7-8.3-8.3-8.3c-4.6,0-8.3,3.7-8.3,8.3C2.4,15.2,6.1,18.9,10.6,18.9z M20.7,19l3.3,3.3L22.3,24
	L19,20.7C19,20.7,20.7,19,20.7,19z"/>
</svg>
