<?xml version="1.0" encoding="utf-8"?>
<!-- Generator: Adobe Illustrator 25.3.1, SVG Export Plug-In . SVG Version: 6.00 Build 0)  -->
<svg version="1.1" id="レイヤー_1" xmlns="http://www.w3.org/2000/svg" xmlns:xlink="http://www.w3.org/1999/xlink" x="0px"
	 y="0px" viewBox="0 0 24 24" style="enable-background:new 0 0 24 24;" xml:space="preserve">
<style type="text/css">
	.st0{fill:none;}
	.st1{fill:#005BAC;}
</style>
<path class="st0" d="M0,0h24v24H0V0z"/>
<path class="st1" d="M20,20.8c0,0.5-0.5,1-1,1H5c-0.5,0-1-0.5-1-1v-9H1l10.3-9.3c0.4-0.4,1-0.4,1.4,0L23,11.8h-3V20.8z M7.5,13.8
	c0,2.5,2,4.5,4.5,4.5s4.5-2,4.5-4.5h-2c0,1.4-1.1,2.5-2.5,2.5s-2.5-1.1-2.5-2.5H7.5z"/>
</svg>
