<?xml version="1.0" encoding="utf-8"?>
<!-- Generator: Adobe Illustrator 25.3.1, SVG Export Plug-In . SVG Version: 6.00 Build 0)  -->
<svg version="1.1" id="レイヤー_1" xmlns="http://www.w3.org/2000/svg" xmlns:xlink="http://www.w3.org/1999/xlink" x="0px"
	 y="0px" viewBox="0 0 24 24" style="enable-background:new 0 0 24 24;" xml:space="preserve">
<style type="text/css">
	.st0{fill:none;}
	.st1{fill:#FFFFFF;}
</style>
<path class="st0" d="M0,0h24v24H0V0z"/>
<path class="st1" d="M21.6,3.6H2.4v16.8L13.6,9.2c0.5-0.5,1.2-0.5,1.7,0l6.4,6.4V3.6z M0,2.4c0-0.7,0.5-1.2,1.2-1.2h21.6
	c0.7,0,1.2,0.5,1.2,1.2v19.2c0,0.7-0.5,1.2-1.2,1.2H1.2c-0.7,0-1.2-0.5-1.2-1.2V2.4z M7.2,10.8c-1.3,0-2.4-1.1-2.4-2.4S5.9,6,7.2,6
	s2.4,1.1,2.4,2.4S8.5,10.8,7.2,10.8z"/>
</svg>
